<svg width="1440" height="702" viewBox="0 0 1440 702" fill="none" xmlns="http://www.w3.org/2000/svg">
<path d="M-22 85.7207C-22 85.7207 133.646 3.06362 241.53 1.03007C356.155 -1.13055 521.305 113.951 523.11 85.7207C524.915 57.4905 581.953 1.03007 795.665 1.03007C1009.38 1.03007 1125.78 79.5837 1157.27 118.86C1188.75 158.137 1299.25 5.10563 1391.92 34.7836C1416.48 42.6501 1450.88 64.8549 1450.88 64.8549M-21.2712 120.452C-21.2712 120.452 137.507 45.2584 246.901 42.7808C363.117 40.1493 522.729 140.83 532.767 117.077C537.161 91.4893 591.573 40.5991 794.733 41.0547C998.397 41.5923 1109.24 113.009 1142.11 149.641C1178.34 186.083 1285.06 47.8268 1378.65 75.537C1409 82.7891 1451.61 97.5151 1451.61 97.5151M-20.5425 155.221C-20.5425 155.221 141.368 87.4904 252.272 84.5687C370.078 81.4663 524.153 167.747 542.424 148.47C549.408 125.525 601.194 80.2053 793.801 81.1167C987.417 82.1918 1092.71 146.471 1126.95 180.459C1167.93 214.067 1270.86 90.5851 1365.39 116.328C1401.51 122.965 1452.34 130.213 1452.34 130.213M-19.8137 190C-19.8137 190 145.229 129.733 257.643 126.367C377.04 122.794 525.576 194.674 552.081 179.874C561.654 159.572 610.814 119.822 792.869 121.189C976.437 122.802 1076.17 179.944 1111.8 211.288C1157.52 242.061 1256.67 133.354 1352.13 157.129C1394.03 163.152 1453.07 162.921 1453.07 162.921M-19.0849 224.794C-19.0849 224.794 149.09 171.99 263.014 168.18C384.002 164.136 527 221.616 561.738 211.293C573.901 193.633 620.434 159.454 791.937 161.276C927.575 162.957 1014.73 193.879 1064 221.008C1077.76 228.585 1088.56 235.866 1096.64 242.131C1147.11 270.07 1242.47 176.138 1338.86 197.945C1386.55 203.354 1453.79 195.643 1453.79 195.643M-18.3562 259.611C-18.3562 259.611 152.951 214.27 268.385 210.016C390.963 205.501 528.424 248.581 571.395 242.734C586.147 227.717 630.055 199.108 791.005 201.386C920.212 203.511 1002.66 230.736 1050.5 254.922C1064.26 262.499 1066.19 272.814 1080.5 277C1141.04 294.707 1172.63 260.427 1238.5 242.615C1266.4 235.931 1295.73 232.695 1325.6 238.784C1379.07 243.578 1454.52 228.389 1454.52 228.389M-17.6274 294.464C-17.6274 294.464 156.811 256.587 273.756 251.889C397.925 246.903 529.848 275.582 581.052 274.212C598.394 261.838 639.675 238.799 790.073 241.533C943.496 244.758 1026.57 280.488 1066.33 303.9C1126.29 326.169 1214.08 261.787 1312.33 279.659C1371.59 283.839 1455.25 261.171 1455.25 261.171M-16.8986 329.383C-16.8986 329.383 160.672 298.969 279.127 293.827C404.886 288.37 531.272 302.648 590.709 305.756C610.641 296.024 649.295 278.555 789.141 281.745C932.516 285.508 1010.03 314.1 1051.17 334.868C1115.87 354.303 1199.89 304.695 1299.07 320.6C1364.1 324.165 1455.98 294.019 1455.98 294.019M-16.1699 364.436C-16.1699 364.436 164.533 341.485 284.498 335.899C411.848 329.971 532.696 329.849 600.366 337.433L601.195 337.172C623.779 330.057 660.49 318.49 788.209 322.091C921.536 326.392 993.497 347.847 1036.02 365.97C1105.46 382.57 1185.69 347.738 1285.81 361.675C1356.62 364.626 1456.71 327.001 1456.71 327.001M-15.4411 400.971C-15.4411 400.971 168.394 385.484 289.869 379.453C418.81 373.055 534.119 358.532 610.023 370.593L611.224 370.38C636.214 365.948 670.419 359.883 787.278 363.919C910.556 368.757 976.962 383.075 1020.86 398.555C1064.76 414.034 1195.95 401.895 1272.54 404.231C1349.14 406.568 1457.44 361.464 1457.44 361.464M1458.17 401.516C1458.17 401.516 1338.96 443.491 1259.28 452.376C1160.67 463.372 1103.18 455.205 1005.7 436.727C993.829 434.476 975.39 430.5 975.39 430.5M-13.9835 485.217C-13.9835 485.217 176.116 484.656 300.611 477.737C330.616 476.07 359.183 472.547 386.5 468.344L506.427 448.088C550.235 441.75 590.817 439.325 629.337 448.088C659.627 448.927 687.777 453.738 785.414 458.751C888.596 464.664 943.891 464.708 990.546 474.899C1074.23 482.995 1143.11 492.487 1246.02 500.521C1334.17 501.629 1458.9 441.567 1458.9 441.567M-13.2548 528.577C-13.2548 528.577 179.977 535.479 305.982 528.116C439.694 520.305 538.391 462.581 638.994 488.072C671.873 491.554 697.397 501.936 784.482 507.404C877.616 513.855 927.356 506.761 975.39 514.308C1063.82 519.569 1128.91 543.837 1232.75 549.903C1326.69 550.396 1459.62 482.856 1459.62 482.856M-12.526 572.797C-12.526 572.797 183.837 587.163 311.353 579.356C446.656 571.074 539.815 498.95 648.651 528.918C684.12 535.042 707.018 550.994 783.55 556.918C866.636 563.907 910.82 549.676 960.234 554.578C1053.41 557.005 1114.72 596.047 1219.49 600.145C1319.21 600.024 1460.35 525.006 1460.35 525.006M-11.7972 617.04C-11.7972 617.04 187.698 638.869 316.723 630.618C453.618 621.865 541.239 535.34 658.308 569.785C696.366 578.552 716.638 600.074 782.618 606.453C855.656 613.98 894.285 592.611 945.077 594.87C1043 594.462 1100.52 648.279 1206.22 650.41C1311.73 649.674 1461.08 567.177 1461.08 567.177M-11.0685 661.294C-11.0685 661.294 191.559 690.587 322.094 681.892C460.579 672.668 542.662 571.743 667.965 610.664C708.613 622.073 726.258 649.166 781.686 656.001C844.676 664.065 877.75 635.559 929.921 635.174C1032.58 631.931 1086.33 700.524 1192.96 700.686C1304.25 699.336 1461.81 609.36 1461.81 609.36M-14.7123 443.094C-14.7123 443.094 69.7066 447.52 164 443.094C174.66 442.594 184.655 442.084 194 441.573C203.345 441.062 265.5 434.5 265.5 434.5" stroke="#311CAB"/>
</svg>
