<svg width="90" height="78" viewBox="0 0 90 78" fill="none" xmlns="http://www.w3.org/2000/svg">
<rect width="90" height="78" rx="10" fill="url(#paint0_linear_314_462)"/>
<path d="M25.1676 56H13.8665V21.0909H25.5256C28.946 21.0909 31.8835 21.7898 34.3381 23.1875C36.7926 24.5739 38.6733 26.5682 39.9801 29.1705C41.2983 31.7614 41.9574 34.8693 41.9574 38.4943C41.9574 42.1307 41.2926 45.2557 39.9631 47.8693C38.6449 50.483 36.7358 52.4943 34.2358 53.9034C31.7358 55.3011 28.7131 56 25.1676 56ZM19.1335 51.3977H24.8778C27.5369 51.3977 29.7472 50.8977 31.5085 49.8977C33.2699 48.8864 34.5881 47.4261 35.4631 45.517C36.3381 43.5966 36.7756 41.2557 36.7756 38.4943C36.7756 35.7557 36.3381 33.4318 35.4631 31.5227C34.5994 29.6136 33.3097 28.1648 31.5938 27.1761C29.8778 26.1875 27.7472 25.6932 25.2017 25.6932H19.1335V51.3977ZM77.5014 32.4432H72.1832C71.9787 31.3068 71.598 30.3068 71.0412 29.4432C70.4844 28.5795 69.8026 27.8466 68.9957 27.2443C68.1889 26.642 67.2855 26.1875 66.2855 25.8807C65.2969 25.5739 64.2457 25.4205 63.1321 25.4205C61.1207 25.4205 59.3196 25.9261 57.7287 26.9375C56.1491 27.9489 54.8991 29.4318 53.9787 31.3864C53.0696 33.3409 52.6151 35.7273 52.6151 38.5455C52.6151 41.3864 53.0696 43.7841 53.9787 45.7386C54.8991 47.6932 56.1548 49.1705 57.7457 50.1705C59.3366 51.1705 61.1264 51.6705 63.1151 51.6705C64.2173 51.6705 65.2628 51.5227 66.2514 51.2273C67.2514 50.9205 68.1548 50.4716 68.9616 49.8807C69.7685 49.2898 70.4503 48.5682 71.0071 47.7159C71.5753 46.8523 71.9673 45.8636 72.1832 44.75L77.5014 44.767C77.2173 46.483 76.6662 48.0625 75.848 49.5057C75.0412 50.9375 74.0014 52.1761 72.7287 53.2216C71.4673 54.2557 70.0241 55.0568 68.3991 55.625C66.7741 56.1932 65.0014 56.4773 63.081 56.4773C60.0582 56.4773 57.3651 55.7614 55.0014 54.3295C52.6378 52.8864 50.7741 50.8239 49.4105 48.142C48.0582 45.4602 47.3821 42.2614 47.3821 38.5455C47.3821 34.8182 48.0639 31.6193 49.4276 28.9489C50.7912 26.267 52.6548 24.2102 55.0185 22.7784C57.3821 21.3352 60.0696 20.6136 63.081 20.6136C64.9332 20.6136 66.6605 20.8807 68.2628 21.4148C69.8764 21.9375 71.3253 22.7102 72.6094 23.733C73.8935 24.7443 74.956 25.983 75.7969 27.4489C76.6378 28.9034 77.206 30.5682 77.5014 32.4432Z" fill="#D9D9D9"/>
<defs>
<linearGradient id="paint0_linear_314_462" x1="45" y1="0" x2="45" y2="78" gradientUnits="userSpaceOnUse">
<stop stop-color="#B447E7"/>
<stop offset="1" stop-color="#ADADAD"/>
</linearGradient>
</defs>
</svg>
